<?xml version="1.0" encoding="UTF-8"?>
<svg width="103px" height="30px" viewBox="0 0 103 30" version="1.1" xmlns="http://www.w3.org/2000/svg" xmlns:xlink="http://www.w3.org/1999/xlink">
    <!-- Generator: Sketch 48.1 (47250) - http://www.bohemiancoding.com/sketch -->
    <title>logo-white</title>
    <desc>Created with Sketch.</desc>
    <defs>
        <linearGradient x1="11.2992686%" y1="-25.8900761%" x2="79.6738238%" y2="119.285833%" id="linearGradient-1">
            <stop stop-color="#34BCE0" offset="0%"></stop>
            <stop stop-color="#19C5B7" offset="100%"></stop>
        </linearGradient>
    </defs>
    <g id="Page-1" stroke="none" stroke-width="1" fill="none" fill-rule="evenodd">
        <g id="logo-white" fill-rule="nonzero">
            <path d="M14.1439117,15.8873239 L13.894316,15.8873239 L7.03043277,0.464788732 C6.94723418,0.253521127 6.65603914,5.68434189e-14 6.3232448,5.68434189e-14 L0.790538928,5.68434189e-14 C0.166549544,5.68434189e-14 -0.166244794,0.549295775 0.0833509593,1.09859155 L13.0623301,29.5352113 C13.187128,29.7887324 13.4367238,30 13.7695181,30 L14.185511,30 C14.5183054,30 14.7679011,29.7887324 14.892699,29.5352113 L27.9548768,1.09859155 C28.2044725,0.549295775 27.8716782,5.68434189e-14 27.2476888,5.68434189e-14 L21.7149829,5.68434189e-14 C21.3821886,5.68434189e-14 21.0909935,0.253521127 21.007795,0.464788732 L14.1439117,15.8873239 Z M64.3542575,28.7746479 C64.3542575,29.1971831 64.7286511,29.5774648 65.144644,29.5774648 L70.1365591,29.5774648 C70.552552,29.5774648 70.9269457,29.1971831 70.9269457,28.7746479 L70.9269457,0.802816901 C70.9269457,0.38028169 70.552552,5.68434189e-14 70.1365591,5.68434189e-14 L65.144644,5.68434189e-14 C64.7286511,5.68434189e-14 64.3542575,0.38028169 64.3542575,0.802816901 L64.3542575,28.7746479 Z M77.4996338,28.7746479 L77.4996338,0.802816901 C77.4996338,0.38028169 77.8324282,5.68434189e-14 78.2484211,5.68434189e-14 L88.3986484,5.68434189e-14 C96.4273118,5.68434189e-14 103,6.63380282 103,14.7464789 C103,22.943662 96.4273118,29.5774648 88.3986484,29.5774648 L78.2484211,29.5774648 C77.8324282,29.5774648 77.4996338,29.1971831 77.4996338,28.7746479 Z M83.9891234,23.3239437 L88.3570491,23.3239437 C93.0577692,23.3239437 96.0945175,19.5633803 96.0945175,14.7464789 C96.0945175,9.97183099 93.0577692,6.21126761 88.3570491,6.21126761 L83.9891234,6.21126761 L83.9891234,23.3239437 Z" id="VOID" fill="#2B292A"></path>
            <path d="M29,15.0416667 C29,6.70833333 35.6342142,0 43.9791377,0 C52.3240612,0 59,6.70833333 59,15.0416667 C59,23.375 52.3240612,30 43.9791377,30 C35.6342142,30 29,23.375 29,15.0416667 Z M35.6759388,15.0416667 C35.6759388,19.5833333 39.4311544,23.3333333 43.9791377,23.3333333 C48.5688456,23.3333333 52.3240612,19.5833333 52.3240612,15.0416667 C52.3240612,10.4583333 48.5688456,6.66666667 43.9791377,6.66666667 C39.4311544,6.66666667 35.6759388,10.4583333 35.6759388,15.0416667 Z" id="Path" fill="url(#linearGradient-1)"></path>
        </g>
    </g>
</svg>